<svg width="36" height="35" viewBox="0 0 36 35" fill="none" xmlns="http://www.w3.org/2000/svg">
<circle cx="18.481" cy="17.5" r="17.5" fill="#F98F54"/>
<path d="M26.356 21V14C26.3556 13.6931 26.2746 13.3917 26.1211 13.126C25.9675 12.8603 25.7467 12.6397 25.481 12.4862L19.356 8.98625C19.0899 8.83265 18.7881 8.75179 18.481 8.75179C18.1738 8.75179 17.872 8.83265 17.606 8.98625L11.481 12.4862C11.2152 12.6397 10.9944 12.8603 10.8409 13.126C10.6873 13.3917 10.6063 13.6931 10.606 14V21C10.6063 21.3069 10.6873 21.6083 10.8409 21.874C10.9944 22.1397 11.2152 22.3603 11.481 22.5137L17.606 26.0137C17.872 26.1673 18.1738 26.2482 18.481 26.2482C18.7881 26.2482 19.0899 26.1673 19.356 26.0137L25.481 22.5137C25.7467 22.3603 25.9675 22.1397 26.1211 21.874C26.2746 21.6083 26.3556 21.3069 26.356 21Z" stroke="white" stroke-width="2" stroke-linecap="round" stroke-linejoin="round"/>
<path d="M10.8422 13.09L18.481 17.5087L26.1197 13.09" stroke="white" stroke-width="2" stroke-linecap="round" stroke-linejoin="round"/>
<path d="M18.481 26.32V17.5" stroke="white" stroke-width="2" stroke-linecap="round" stroke-linejoin="round"/>
</svg>
