<svg width="36" height="35" viewBox="0 0 36 35" fill="none" xmlns="http://www.w3.org/2000/svg">
<circle cx="18.481" cy="17.5" r="17.5" fill="#414047"/>
<g clip-path="url(#clip0_2_2515)">
<path d="M15.856 20.125L13.2589 22.722C12.9699 23.011 12.6017 23.2078 12.2008 23.2875C11.7999 23.3672 11.3844 23.3263 11.0068 23.1699C10.6292 23.0135 10.3065 22.7486 10.0794 22.4088C9.85226 22.069 9.73101 21.6695 9.73095 21.2608V20.125L10.9183 14.189C11.0769 13.3956 11.5055 12.6816 12.1312 12.1685C12.7568 11.6555 13.541 11.3751 14.3501 11.375H22.6118C23.421 11.3751 24.2051 11.6555 24.8307 12.1685C25.4564 12.6816 25.885 13.3956 26.0436 14.189L27.231 20.125V21.2599C27.2309 21.6686 27.1096 22.0681 26.8825 22.4079C26.6554 22.7477 26.3327 23.0126 25.9551 23.169C25.5775 23.3254 25.162 23.3663 24.7611 23.2866C24.3602 23.2069 23.992 23.0101 23.703 22.7211L21.106 20.125H15.856Z" stroke="white" stroke-width="2" stroke-linecap="round" stroke-linejoin="round"/>
<path d="M15.856 11.375L16.731 13.125H20.231L21.106 11.375" stroke="white" stroke-width="2" stroke-linecap="round" stroke-linejoin="round"/>
</g>
<defs>
<clipPath id="clip0_2_2515">
<rect width="21" height="21" fill="white" transform="translate(7.98096 7)"/>
</clipPath>
</defs>
</svg>
