<svg width="20" height="20" viewBox="0 0 20 20" fill="none" xmlns="http://www.w3.org/2000/svg">
<path d="M18.3143 16.6667V10.145C18.3144 9.69128 18.2218 9.24232 18.0422 8.82563C17.8627 8.40893 17.6 8.03328 17.2701 7.72168L11.126 1.91501C10.8165 1.62245 10.4068 1.45944 9.98098 1.45944C9.55513 1.45944 9.14543 1.62245 8.83598 1.91501L2.69181 7.72168C2.362 8.03328 2.09927 8.40893 1.91973 8.82563C1.74018 9.24232 1.6476 9.69128 1.64764 10.145V16.6667C1.64764 17.1087 1.82324 17.5326 2.1358 17.8452C2.44836 18.1578 2.87228 18.3333 3.31431 18.3333H16.6476C17.0897 18.3333 17.5136 18.1578 17.8262 17.8452C18.1387 17.5326 18.3143 17.1087 18.3143 16.6667Z" stroke="#6F6E73" stroke-width="2" stroke-linecap="round" stroke-linejoin="round"/>
</svg>
