<svg width="27" height="26" viewBox="0 0 27 26" fill="none" xmlns="http://www.w3.org/2000/svg">
<path d="M16.1476 3.54141C16.1476 2.78199 15.5323 2.16666 14.7729 2.16666H13.1901C12.4296 2.16666 11.8143 2.78199 11.8143 3.54141C11.8143 4.16757 11.3853 4.70491 10.8014 4.93457C10.7093 4.97141 10.6172 5.01041 10.5273 5.04941C9.95206 5.29857 9.26848 5.22274 8.82431 4.77966C8.56652 4.52205 8.217 4.37735 7.85256 4.37735C7.48812 4.37735 7.1386 4.52205 6.88081 4.77966L5.76064 5.89982C5.50304 6.15761 5.35833 6.50714 5.35833 6.87157C5.35833 7.23601 5.50304 7.58554 5.76064 7.84332C6.20481 8.28749 6.28064 8.96999 6.02931 9.54632C5.98982 9.63702 5.9519 9.7284 5.91556 9.82041C5.68589 10.4043 5.14856 10.8333 4.52239 10.8333C3.76298 10.8333 3.14764 11.4487 3.14764 12.2081V13.7919C3.14764 14.5513 3.76298 15.1667 4.52239 15.1667C5.14856 15.1667 5.68589 15.5957 5.91556 16.1796C5.95239 16.2717 5.99139 16.3637 6.02931 16.4537C6.27956 17.0289 6.20373 17.7125 5.76064 18.1567C5.50304 18.4144 5.35833 18.764 5.35833 19.1284C5.35833 19.4928 5.50304 19.8424 5.76064 20.1002L6.88081 21.2203C7.1386 21.4779 7.48812 21.6226 7.85256 21.6226C8.217 21.6226 8.56652 21.4779 8.82431 21.2203C9.26848 20.7762 9.95098 20.7003 10.5273 20.9506C10.6172 20.9907 10.7093 21.0286 10.8014 21.0654C11.3853 21.2951 11.8143 21.8324 11.8143 22.4586C11.8143 23.218 12.4296 23.8333 13.1891 23.8333H14.7729C15.5323 23.8333 16.1476 23.218 16.1476 22.4586C16.1476 21.8324 16.5766 21.2951 17.1606 21.0643C17.2526 21.0286 17.3447 20.9907 17.4346 20.9517C18.0099 20.7003 18.6935 20.7772 19.1366 21.2203C19.2642 21.348 19.4158 21.4494 19.5826 21.5185C19.7495 21.5876 19.9283 21.6232 20.1089 21.6232C20.2894 21.6232 20.4682 21.5876 20.6351 21.5185C20.8019 21.4494 20.9535 21.348 21.0811 21.2203L22.2013 20.1002C22.4589 19.8424 22.6036 19.4928 22.6036 19.1284C22.6036 18.764 22.4589 18.4144 22.2013 18.1567C21.7571 17.7125 21.6813 17.03 21.9316 16.4537C21.9716 16.3637 22.0096 16.2717 22.0464 16.1796C22.2761 15.5957 22.8134 15.1667 23.4396 15.1667C24.199 15.1667 24.8143 14.5513 24.8143 13.7919V12.2092C24.8143 11.4497 24.199 10.8344 23.4396 10.8344C22.8134 10.8344 22.2761 10.4054 22.0453 9.82149C22.009 9.72947 21.9711 9.63809 21.9316 9.54741C21.6824 8.97216 21.7582 8.28857 22.2013 7.84441C22.4589 7.58662 22.6036 7.23709 22.6036 6.87266C22.6036 6.50822 22.4589 6.15869 22.2013 5.90091L21.0811 4.78074C20.8234 4.52314 20.4738 4.37843 20.1094 4.37843C19.745 4.37843 19.3954 4.52314 19.1376 4.78074C18.6935 5.22491 18.011 5.30074 17.4346 5.05049C17.344 5.01063 17.2526 4.97235 17.1606 4.93566C16.5766 4.70491 16.1476 4.16757 16.1476 3.54249V3.54141Z" fill="#BEBEC2"/>
<path d="M18.3143 13C18.3143 14.1493 17.8578 15.2515 17.0451 16.0641C16.2325 16.8768 15.1302 17.3333 13.981 17.3333C12.8317 17.3333 11.7295 16.8768 10.9168 16.0641C10.1042 15.2515 9.64764 14.1493 9.64764 13C9.64764 11.8507 10.1042 10.7485 10.9168 9.93586C11.7295 9.1232 12.8317 8.66666 13.981 8.66666C15.1302 8.66666 16.2325 9.1232 17.0451 9.93586C17.8578 10.7485 18.3143 11.8507 18.3143 13Z" fill="#6F6E73"/>
</svg>
