<svg width="31" height="21" viewBox="0 0 31 21" fill="none" xmlns="http://www.w3.org/2000/svg">
<path d="M10.6908 7.01734C9.89334 10.8389 9.03515 14.7984 6.93591 18.3187C6.55938 18.9501 6.09225 19.6477 6.27782 18.5953C6.44707 17.6354 6.76068 16.8883 7.69645 16.1536C12.4036 12.4578 17.8173 9.08161 21.4274 4.87283C21.772 4.47112 24.6616 1.07215 21.3895 1.81919C17.2299 2.76884 13.9756 5.31186 11.344 7.23533C7.61774 9.95891 4.01328 12.8671 1.78678 16.2332C1.32234 16.9353 2.17785 17.1987 3.42218 17.3253C5.64692 17.5518 7.44754 16.7848 9.32556 16.4409C10.0526 16.3077 10.5071 16.2919 10.795 16.7C11.1957 17.2682 13.9105 16.6601 14.3472 16.5412C15.3074 16.2798 15.9875 15.8584 17.2286 16.0772C18.7018 16.337 19.9143 15.9551 21.1514 15.6848C23.651 15.1385 25.9153 14.3737 28.5355 13.9679C29.2149 13.8626 28.8599 14.2676 29.2973 14.5041" stroke="#414047" stroke-width="3" stroke-linecap="round"/>
</svg>
